<?xml version="1.0" encoding="UTF-8"?>
<svg width="37px" height="26px" viewBox="0 0 37 26" version="1.1" xmlns="http://www.w3.org/2000/svg" xmlns:xlink="http://www.w3.org/1999/xlink">
    <!-- Generator: Sketch 57.1 (83088) - https://sketch.com -->
    <title>email</title>
    <desc>Created with Sketch.</desc>
    <g id="Desktop" stroke="none" stroke-width="1" fill="none" fill-rule="evenodd">
        <g id="4" transform="translate(-526.000000, -526.000000)" fill="#283277" fill-rule="nonzero">
            <g id="email" transform="translate(526.000000, 526.000000)">
                <path d="M18.0960004,13.5163203 L34.3824007,0.180960004 C34.0710377,0.0628482964 33.7410095,0.0015573463 33.4080007,-7.10542736e-15 L2.78400006,-7.10542736e-15 C2.45099124,0.0015573463 2.12096305,0.0628482964 1.80960004,0.180960004 L18.0960004,13.5163203 Z" id="Path"></path>
                <path d="M18.9729604,16.3838403 C18.9112573,16.4304618 18.8461109,16.4723416 18.7780804,16.5091203 L18.6249604,16.5926403 C18.4576109,16.6639678 18.2779031,16.701801 18.0960004,16.7040003 L18.0960004,16.7040003 C17.9140976,16.701801 17.7343898,16.6639678 17.5670404,16.5926403 L17.4139204,16.5091203 C17.3458898,16.4723416 17.2807434,16.4304618 17.2190404,16.3838403 L-2.4158453e-13,2.33856005 C-2.4158453e-13,2.49168005 -2.4158453e-13,2.63088005 -2.4158453e-13,2.78400006 L-2.4158453e-13,22.2720005 C-2.4158453e-13,23.8095612 1.24643928,25.0560005 2.78400006,25.0560005 L33.4080007,25.0560005 C34.9455615,25.0560005 36.1920007,23.8095612 36.1920007,22.2720005 L36.1920007,2.78400006 C36.1920007,2.63088005 36.1920007,2.49168005 36.1920007,2.33856005 L18.9729604,16.3838403 Z" id="Path"></path>
            </g>
        </g>
    </g>
</svg>