<?xml version="1.0" encoding="UTF-8"?>
<svg width="35px" height="35px" viewBox="0 0 35 35" version="1.1" xmlns="http://www.w3.org/2000/svg" xmlns:xlink="http://www.w3.org/1999/xlink">
    <!-- Generator: Sketch 57.1 (83088) - https://sketch.com -->
    <title>linkedin</title>
    <desc>Created with Sketch.</desc>
    <g id="Desktop" stroke="none" stroke-width="1" fill="none" fill-rule="evenodd">
        <g id="4" transform="translate(-465.000000, -521.000000)" fill="#283277">
            <path d="M482.5,521 C492.164983,521 500,528.835017 500,538.5 C500,548.164983 492.164983,556 482.5,556 C472.835017,556 465,548.164983 465,538.5 C465,528.835017 472.835017,521 482.5,521 Z M477.707692,534.71282 L473.974359,534.71282 L473.974359,547.779486 L477.707692,547.779486 L477.707692,534.71282 Z M487.975536,533.779487 C486.080694,533.779487 484.812363,534.836751 484.290816,535.838369 L484.290816,535.838369 L484.240521,535.838369 L484.240521,534.101118 L480.507692,534.101118 L480.507692,546.846153 L484.393595,546.846153 L484.393595,540.539297 C484.393595,538.876611 484.703024,537.268457 486.729073,537.268457 C488.724507,537.268457 488.754029,539.170419 488.754029,540.648362 L488.754029,540.648362 L488.754029,546.846153 L492.641025,546.846153 L492.641025,539.850406 C492.641025,536.417082 491.912828,533.779487 487.975536,533.779487 Z M476.307127,528.179487 C475.014663,528.179487 473.974359,529.225191 473.974359,530.51169 C473.974359,531.799319 475.013532,532.846154 476.307127,532.846154 C477.595068,532.846154 478.641025,531.799319 478.641025,530.51169 C478.641025,529.225191 477.596199,528.179487 476.307127,528.179487 Z" id="linkedin"></path>
        </g>
    </g>
</svg>