<?xml version="1.0" encoding="UTF-8"?>
<svg width="35px" height="35px" viewBox="0 0 35 35" version="1.1" xmlns="http://www.w3.org/2000/svg" xmlns:xlink="http://www.w3.org/1999/xlink">
    <!-- Generator: Sketch 57.1 (83088) - https://sketch.com -->
    <title>twitter</title>
    <desc>Created with Sketch.</desc>
    <g id="Desktop" stroke="none" stroke-width="1" fill="none" fill-rule="evenodd">
        <g id="4" transform="translate(-418.000000, -521.000000)" fill="#283277">
            <path d="M435.5,521 C445.164983,521 453,528.835017 453,538.5 C453,548.164983 445.164983,556 435.5,556 C425.835017,556 418,548.164983 418,538.5 C418,528.835017 425.835017,521 435.5,521 Z M439.612357,531.072695 C437.393473,531.072695 435.594357,532.871812 435.594357,535.088245 C435.594357,535.406745 435.631107,535.712995 435.698073,536.006178 C432.357907,535.848562 429.39749,534.244628 427.416256,531.819945 C427.06754,532.409578 426.872356,533.094762 426.872356,533.841195 C426.872356,535.237695 427.582856,536.465145 428.659223,537.186262 C428.000173,537.165028 427.380323,536.983728 426.83969,536.683195 L426.83969,536.733012 C426.83969,538.680762 428.222306,540.305112 430.062257,540.675062 C429.724973,540.765712 429.368907,540.814712 429.003856,540.814712 C428.747423,540.814712 428.501606,540.790212 428.25579,540.744478 C428.771106,542.339429 430.25254,543.502362 432.015723,543.535029 C430.643723,544.612212 428.90504,545.254112 427.032423,545.254112 C426.713923,545.254112 426.39624,545.235329 426.076923,545.199395 C427.864606,546.337829 429.97079,547.003412 432.248473,547.003412 C439.642573,547.003412 443.68099,540.881678 443.68099,535.581512 C443.68099,535.410828 443.68099,535.238512 443.66874,535.067012 C444.453557,534.504328 445.13874,533.793012 445.67774,532.986145 L445.639357,532.969812 C444.916607,533.287495 444.144857,533.503912 443.332274,533.602728 C444.160374,533.103745 444.797374,532.317295 445.098724,531.378945 C444.322074,531.832195 443.461307,532.162128 442.545007,532.345878 C441.813274,531.562695 440.77039,531.072695 439.612357,531.072695 Z" id="twitter"></path>
        </g>
    </g>
</svg>